<mxfile host="Electron" agent="Mozilla/5.0 (X11; Linux x86_64) AppleWebKit/537.36 (KHTML, like Gecko) draw.io/24.7.5 Chrome/126.0.6478.183 Electron/31.3.0 Safari/537.36" version="24.7.5">
  <diagram id="dGnL32opo7n03FPh2dYb" name="Page-1">
    <mxGraphModel dx="683" dy="409" grid="1" gridSize="10" guides="1" tooltips="1" connect="1" arrows="1" fold="1" page="1" pageScale="1" pageWidth="850" pageHeight="1100" math="0" shadow="0">
      <root>
        <mxCell id="0" />
        <mxCell id="1" parent="0" />
        <mxCell id="2" value="Actor" style="shape=umlActor;verticalLabelPosition=bottom;verticalAlign=top;html=1;outlineConnect=0;" parent="1" vertex="1">
          <mxGeometry x="100" y="108" width="30" height="60" as="geometry" />
        </mxCell>
        <mxCell id="XTRfmXJ0xeXWVfE4zT9B-11" value="" style="edgeStyle=orthogonalEdgeStyle;rounded=0;orthogonalLoop=1;jettySize=auto;html=1;" parent="1" source="3" target="6" edge="1">
          <mxGeometry relative="1" as="geometry" />
        </mxCell>
        <mxCell id="6I1FBEJYak1ToQiGsjgW-20" style="edgeStyle=orthogonalEdgeStyle;rounded=0;orthogonalLoop=1;jettySize=auto;html=1;entryX=0.55;entryY=0.001;entryDx=0;entryDy=0;dashed=1;entryPerimeter=0;" edge="1" parent="1" source="3" target="6I1FBEJYak1ToQiGsjgW-19">
          <mxGeometry relative="1" as="geometry">
            <Array as="points">
              <mxPoint x="250" y="190" />
              <mxPoint x="506" y="190" />
            </Array>
          </mxGeometry>
        </mxCell>
        <mxCell id="3" value="&lt;p style=&quot;margin: 0px; font-variant-numeric: normal; font-variant-east-asian: normal; font-variant-alternates: normal; font-kerning: auto; font-optical-sizing: auto; font-feature-settings: normal; font-variation-settings: normal; font-variant-position: normal; font-stretch: normal; line-height: normal; font-family: &amp;quot;Helvetica Neue&amp;quot;; text-align: start;&quot; class=&quot;p1&quot;&gt;&lt;font style=&quot;font-size: 9px;&quot;&gt;I have acne.&lt;br&gt;Find an anti-acne&amp;nbsp;&lt;/font&gt;&lt;/p&gt;&lt;span style=&quot;font-family: &amp;quot;Helvetica Neue&amp;quot;; font-size: 9px; text-align: start;&quot;&gt;cream&lt;/span&gt;" style="ellipse;shape=cloud;whiteSpace=wrap;html=1;" parent="1" vertex="1">
          <mxGeometry x="180" y="65" width="140" height="90" as="geometry" />
        </mxCell>
        <mxCell id="4" value="" style="shape=cylinder3;whiteSpace=wrap;html=1;boundedLbl=1;backgroundOutline=1;size=15;" parent="1" vertex="1">
          <mxGeometry x="585" y="190" width="60" height="80" as="geometry" />
        </mxCell>
        <mxCell id="XTRfmXJ0xeXWVfE4zT9B-12" value="" style="edgeStyle=orthogonalEdgeStyle;rounded=0;orthogonalLoop=1;jettySize=auto;html=1;" parent="1" source="6" target="7" edge="1">
          <mxGeometry relative="1" as="geometry" />
        </mxCell>
        <mxCell id="6" value="LLM" style="sketch=0;aspect=fixed;html=1;points=[];align=center;image;fontSize=12;image=img/lib/mscae/Cognitive_Services.svg;" parent="1" vertex="1">
          <mxGeometry x="340" y="95" width="50" height="30" as="geometry" />
        </mxCell>
        <mxCell id="6I1FBEJYak1ToQiGsjgW-8" style="edgeStyle=orthogonalEdgeStyle;rounded=0;orthogonalLoop=1;jettySize=auto;html=1;" edge="1" parent="1" source="7">
          <mxGeometry relative="1" as="geometry">
            <mxPoint x="540.0000000000001" y="80" as="targetPoint" />
          </mxGeometry>
        </mxCell>
        <mxCell id="7" value="anti-acne cream" style="rounded=0;whiteSpace=wrap;html=1;fontSize=9;" parent="1" vertex="1">
          <mxGeometry x="410" y="95" width="80" height="30" as="geometry" />
        </mxCell>
        <mxCell id="8" value="" style="sketch=0;outlineConnect=0;fontColor=#232F3E;gradientColor=none;fillColor=#232F3D;strokeColor=none;dashed=0;verticalLabelPosition=bottom;verticalAlign=top;align=center;html=1;fontSize=12;fontStyle=0;aspect=fixed;pointerEvents=1;shape=mxgraph.aws4.internet_alt2;" parent="1" vertex="1">
          <mxGeometry x="512" y="30" width="78" height="78" as="geometry" />
        </mxCell>
        <mxCell id="XTRfmXJ0xeXWVfE4zT9B-13" value="semantic" style="text;html=1;align=center;verticalAlign=middle;resizable=0;points=[];autosize=1;strokeColor=none;fillColor=none;" parent="1" vertex="1">
          <mxGeometry x="415" y="68" width="70" height="30" as="geometry" />
        </mxCell>
        <mxCell id="6I1FBEJYak1ToQiGsjgW-9" value="" style="group" vertex="1" connectable="0" parent="1">
          <mxGeometry x="560" y="90" width="110" height="42" as="geometry" />
        </mxCell>
        <mxCell id="XTRfmXJ0xeXWVfE4zT9B-9" value="0.004 0.003 0.002" style="rounded=0;whiteSpace=wrap;html=1;" parent="6I1FBEJYak1ToQiGsjgW-9" vertex="1">
          <mxGeometry y="22" width="110" height="20" as="geometry" />
        </mxCell>
        <mxCell id="XTRfmXJ0xeXWVfE4zT9B-10" value="vector" style="text;html=1;align=center;verticalAlign=middle;resizable=0;points=[];autosize=1;strokeColor=none;fillColor=none;" parent="6I1FBEJYak1ToQiGsjgW-9" vertex="1">
          <mxGeometry x="25" width="60" height="30" as="geometry" />
        </mxCell>
        <mxCell id="6I1FBEJYak1ToQiGsjgW-10" value="" style="edgeStyle=orthogonalEdgeStyle;rounded=0;orthogonalLoop=1;jettySize=auto;html=1;" edge="1" parent="1" source="XTRfmXJ0xeXWVfE4zT9B-9" target="4">
          <mxGeometry relative="1" as="geometry" />
        </mxCell>
        <mxCell id="6I1FBEJYak1ToQiGsjgW-18" style="edgeStyle=orthogonalEdgeStyle;rounded=0;orthogonalLoop=1;jettySize=auto;html=1;" edge="1" parent="1" source="6I1FBEJYak1ToQiGsjgW-12">
          <mxGeometry relative="1" as="geometry">
            <mxPoint x="560" y="250" as="targetPoint" />
          </mxGeometry>
        </mxCell>
        <mxCell id="6I1FBEJYak1ToQiGsjgW-12" value="vector&lt;div&gt;storage&lt;/div&gt;" style="text;html=1;align=center;verticalAlign=middle;resizable=0;points=[];autosize=1;strokeColor=none;fillColor=none;" vertex="1" parent="1">
          <mxGeometry x="585" y="230" width="60" height="40" as="geometry" />
        </mxCell>
        <mxCell id="6I1FBEJYak1ToQiGsjgW-28" value="" style="edgeStyle=orthogonalEdgeStyle;rounded=0;orthogonalLoop=1;jettySize=auto;html=1;" edge="1" parent="1" source="6I1FBEJYak1ToQiGsjgW-14" target="6I1FBEJYak1ToQiGsjgW-27">
          <mxGeometry relative="1" as="geometry" />
        </mxCell>
        <mxCell id="6I1FBEJYak1ToQiGsjgW-14" value="LLM" style="sketch=0;aspect=fixed;html=1;points=[];align=center;image;fontSize=12;image=img/lib/mscae/Cognitive_Services.svg;" vertex="1" parent="1">
          <mxGeometry x="300" y="235" width="50" height="30" as="geometry" />
        </mxCell>
        <mxCell id="6I1FBEJYak1ToQiGsjgW-19" value="&lt;span style=&quot;text-wrap: nowrap;&quot;&gt;original promt&lt;/span&gt;&lt;br style=&quot;text-wrap: nowrap;&quot;&gt;&lt;span style=&quot;text-wrap: nowrap;&quot;&gt;+&amp;nbsp;&lt;/span&gt;&lt;div style=&quot;text-wrap: nowrap;&quot;&gt;top k similar products&lt;/div&gt;" style="rounded=0;whiteSpace=wrap;html=1;" vertex="1" parent="1">
          <mxGeometry x="440" y="210" width="120" height="60" as="geometry" />
        </mxCell>
        <mxCell id="6I1FBEJYak1ToQiGsjgW-21" value="" style="endArrow=none;html=1;rounded=0;" edge="1" parent="1">
          <mxGeometry width="50" height="50" relative="1" as="geometry">
            <mxPoint x="180" y="280" as="sourcePoint" />
            <mxPoint x="180" y="20" as="targetPoint" />
          </mxGeometry>
        </mxCell>
        <mxCell id="6I1FBEJYak1ToQiGsjgW-22" value="" style="endArrow=classic;html=1;rounded=0;entryX=0.071;entryY=0.5;entryDx=0;entryDy=0;entryPerimeter=0;" edge="1" parent="1" target="3">
          <mxGeometry width="50" height="50" relative="1" as="geometry">
            <mxPoint x="140" y="125" as="sourcePoint" />
            <mxPoint x="190" y="80" as="targetPoint" />
            <Array as="points" />
          </mxGeometry>
        </mxCell>
        <mxCell id="6I1FBEJYak1ToQiGsjgW-23" style="edgeStyle=orthogonalEdgeStyle;rounded=0;orthogonalLoop=1;jettySize=auto;html=1;exitX=0;exitY=0.75;exitDx=0;exitDy=0;entryX=1;entryY=0.66;entryDx=0;entryDy=0;entryPerimeter=0;" edge="1" parent="1" source="6I1FBEJYak1ToQiGsjgW-19" target="6I1FBEJYak1ToQiGsjgW-14">
          <mxGeometry relative="1" as="geometry" />
        </mxCell>
        <mxCell id="6I1FBEJYak1ToQiGsjgW-30" style="edgeStyle=orthogonalEdgeStyle;rounded=0;orthogonalLoop=1;jettySize=auto;html=1;exitX=0;exitY=0.5;exitDx=0;exitDy=0;" edge="1" parent="1" source="6I1FBEJYak1ToQiGsjgW-27">
          <mxGeometry relative="1" as="geometry">
            <mxPoint x="150" y="150" as="targetPoint" />
            <Array as="points">
              <mxPoint x="190" y="250" />
              <mxPoint x="190" y="150" />
              <mxPoint x="150" y="150" />
            </Array>
          </mxGeometry>
        </mxCell>
        <mxCell id="6I1FBEJYak1ToQiGsjgW-27" value="&lt;span style=&quot;text-wrap: nowrap;&quot;&gt;final output&lt;/span&gt;" style="rounded=0;whiteSpace=wrap;html=1;" vertex="1" parent="1">
          <mxGeometry x="210" y="240" width="70" height="20" as="geometry" />
        </mxCell>
        <mxCell id="6I1FBEJYak1ToQiGsjgW-31" value="MongoDB" style="text;html=1;align=center;verticalAlign=middle;resizable=0;points=[];autosize=1;strokeColor=none;fillColor=none;" vertex="1" parent="1">
          <mxGeometry x="575" y="265" width="80" height="30" as="geometry" />
        </mxCell>
        <mxCell id="6I1FBEJYak1ToQiGsjgW-32" value="OpenAI API" style="text;html=1;align=center;verticalAlign=middle;resizable=0;points=[];autosize=1;strokeColor=none;fillColor=none;" vertex="1" parent="1">
          <mxGeometry x="500" y="10" width="90" height="30" as="geometry" />
        </mxCell>
      </root>
    </mxGraphModel>
  </diagram>
</mxfile>
